<svg xmlns="http://www.w3.org/2000/svg" width="4500" height="4500" viewBox="0 0 4500 4500" version="1.1"><path d="" stroke="none" fill="#201c1c" fill-rule="evenodd"/><path d="M 3646 1130.693 C 3540.202 1136.906, 3439.134 1173.346, 3352 1236.694 C 3308.887 1268.037, 3270.020 1308.353, 3242.737 1350.029 C 3194.281 1424.048, 3170.373 1509.964, 3166.009 1625.762 C 3164.698 1660.543, 3164.698 2839.457, 3166.009 2874.238 C 3171.734 3026.170, 3212.162 3131.462, 3297.433 3216.529 C 3365.906 3284.838, 3461.977 3336.318, 3560.481 3357.484 C 3597.404 3365.418, 3626.910 3368.828, 3666 3369.679 C 3742.280 3371.339, 3813.065 3358.650, 3882.948 3330.788 C 3905.218 3321.909, 3937.659 3306.183, 3941.251 3302.526 C 3944.636 3299.079, 3946.469 3293.315, 3945.620 3288.786 C 3945.252 3286.825, 3941.975 3281.372, 3937.899 3275.939 C 3914.168 3244.308, 3898.482 3208.004, 3891.261 3168 C 3888.886 3154.848, 3888.636 3151.037, 3888.572 3127 C 3888.493 3097.961, 3889.367 3089.860, 3895.148 3066.057 C 3917.191 2975.292, 3990.983 2902.897, 4082.115 2882.629 C 4108.763 2876.702, 4138.264 2875.034, 4165.548 2877.910 C 4177.645 2879.185, 4178.868 2879.157, 4182.318 2877.519 C 4184.365 2876.548, 4187.043 2874.346, 4188.270 2872.627 L 4190.500 2869.500 4190.500 2238 C 4190.500 1636.942, 4190.413 1605.560, 4188.694 1587 C 4181.250 1506.634, 4165.810 1447.526, 4137.494 1390.987 C 4108.099 1332.297, 4064.683 1281.303, 4008.500 1239.481 C 3929.130 1180.398, 3836.552 1143.978, 3738 1133.064 C 3713.786 1130.383, 3670.345 1129.263, 3646 1130.693 M 340.100 1150.547 C 295.541 1160.213, 263.451 1194.578, 257.039 1239.500 C 256.379 1244.126, 256.040 1586.841, 256.040 2250 C 256.040 2913.159, 256.379 3255.874, 257.039 3260.500 C 263.018 3302.387, 291.378 3335.177, 332.500 3347.749 L 341.500 3350.500 699.500 3350.786 C 1021.785 3351.044, 1058.768 3350.913, 1070.209 3349.483 C 1108.644 3344.676, 1144.095 3330.326, 1176 3306.661 C 1188.630 3297.293, 1210.702 3275.085, 1220.653 3261.735 C 1257.208 3212.688, 1271.900 3149.779, 1260.973 3089.091 C 1254.653 3053.997, 1237.952 3017.832, 1214.855 2989.232 C 1200.669 2971.666, 1178.800 2952.379, 1159 2939.973 C 1148.345 2933.297, 1127.312 2923.167, 1115.500 2919.022 C 1090.244 2910.159, 1065.864 2906.508, 1037.039 2907.272 C 1001.651 2908.209, 973.695 2915.626, 940.395 2932.912 C 923.105 2941.888, 910.055 2950.598, 891.102 2965.816 C 868.353 2984.081, 858.992 2989.776, 841.688 2995.879 C 825.825 3001.474, 814.522 3003.312, 795.500 3003.387 C 782.654 3003.437, 776.473 3003.013, 770.204 3001.652 C 743.258 2995.798, 723.269 2984.438, 701.448 2962.576 C 672.401 2933.475, 654.217 2896.333, 644.864 2847 L 642.684 2835.500 641.978 2567.500 C 641.589 2420.100, 641.204 2061.225, 641.122 1770 C 640.979 1257.791, 640.913 1240.205, 639.112 1231.478 C 630.828 1191.343, 598.657 1159.172, 558.522 1150.888 C 550.056 1149.141, 543.247 1149.030, 448 1149.093 C 365.340 1149.147, 345.312 1149.417, 340.100 1150.547 M 1066 1150.959 C 1044.991 1155.452, 1028.098 1164.869, 1013.297 1180.338 C 996.672 1197.713, 987.725 1217.009, 984.940 1241.500 C 984.248 1247.586, 984.011 1511.618, 984.208 2057 L 984.500 2863.500 986.726 2867.080 C 987.951 2869.049, 990.478 2871.481, 992.341 2872.484 C 995.998 2874.454, 998.246 2874.411, 1021.500 2871.931 C 1033.619 2870.638, 1061.456 2871.188, 1074.500 2872.979 C 1150.667 2883.434, 1215.030 2923.530, 1257.527 2987 C 1267.938 3002.549, 1280.735 3028.923, 1286.883 3047.500 C 1313.427 3127.710, 1299.277 3215.854, 1249.078 3283 C 1240.731 3294.164, 1239.149 3298.215, 1240.878 3303.986 C 1242.799 3310.398, 1245.688 3312.666, 1260.500 3319.391 C 1339.074 3355.063, 1420.483 3371.479, 1510 3369.702 C 1560.533 3368.699, 1603.405 3362.942, 1649.996 3350.903 C 1721.721 3332.369, 1791.574 3297.983, 1842.991 3255.899 C 1944.736 3172.623, 2000.471 3058.353, 2009.021 2915.500 C 2009.780 2902.822, 2010.010 2651.809, 2009.799 2066.500 L 2009.500 1235.500 2006.714 1226 C 1995.891 1189.092, 1968.348 1161.746, 1932 1151.821 L 1923.500 1149.500 1817.500 1149.500 L 1711.500 1149.500 1703 1151.789 C 1690.635 1155.120, 1674.056 1163.576, 1664.032 1171.666 C 1644.360 1187.543, 1630.736 1210.371, 1626.527 1234.508 C 1625.166 1242.308, 1624.999 1331.375, 1624.990 2051.881 C 1624.983 2590.190, 1624.640 2864.511, 1623.965 2872.500 C 1620.737 2910.660, 1610.045 2936.872, 1588.222 2960.120 C 1544.877 3006.296, 1480.326 3014.013, 1428.100 2979.263 C 1418.365 2972.785, 1403.968 2958.904, 1396.194 2948.500 C 1385.449 2934.119, 1376.921 2913.584, 1372.314 2891 C 1370.680 2882.989, 1370.548 2835.210, 1370.016 2061 C 1369.474 1272.780, 1369.378 1239.196, 1367.642 1232 C 1362.391 1210.241, 1354.134 1195.236, 1339 1179.947 C 1323.119 1163.904, 1307.471 1155.245, 1286.500 1150.894 C 1278.046 1149.140, 1271.345 1149.030, 1176 1149.083 C 1081.801 1149.137, 1073.889 1149.271, 1066 1150.959 M 2160.393 1150.088 C 2151.844 1151.518, 2138.965 1155.968, 2129.916 1160.619 C 2105.093 1173.377, 2085.982 1197.376, 2078.249 1225.500 L 2075.500 1235.500 2075.500 2250 L 2075.500 3264.500 2078.249 3274.500 C 2088.056 3310.169, 2114.107 3336.577, 2150.500 3347.739 L 2159.500 3350.500 2386 3350.801 C 2543.715 3351.011, 2617.055 3350.768, 2627.500 3350.002 C 2721.901 3343.082, 2811.112 3312.925, 2890 3261.267 C 2964.701 3212.350, 3020.075 3150.096, 3053.013 3078 C 3079.368 3020.314, 3093.352 2960.210, 3099.197 2879.500 C 3101.118 2852.970, 3101.118 1647.030, 3099.197 1620.500 C 3094.866 1560.701, 3086.540 1514.933, 3071.830 1470.079 C 3040.308 1373.955, 2980.719 1298.140, 2890 1238.733 C 2811.480 1187.316, 2723.595 1157.487, 2628.605 1150.014 C 2612.707 1148.764, 2167.891 1148.834, 2160.393 1150.088 M 3663.635 1500.064 C 3648.616 1502.147, 3634.582 1506.661, 3619.500 1514.260 C 3579.653 1534.338, 3557.735 1569.096, 3552.058 1621.211 C 3550.572 1634.849, 3550.572 2865.151, 3552.058 2878.789 C 3555.908 2914.133, 3566.840 2940.543, 3586.340 2961.604 C 3601.899 2978.409, 3628.807 2992.800, 3655.500 2998.593 C 3667.722 3001.246, 3690.562 3000.995, 3703.443 2998.067 C 3735.515 2990.778, 3763.624 2973.037, 3780.122 2949.672 C 3794.179 2929.763, 3802.126 2905.739, 3804.990 2874.500 C 3806.384 2859.291, 3806.384 1640.709, 3804.990 1625.500 C 3799.942 1570.438, 3777.845 1534.505, 3736.157 1513.569 C 3713.637 1502.259, 3685.540 1497.027, 3663.635 1500.064 M 2511.360 1508.430 C 2485.285 1513.333, 2468.717 1527.381, 2462.334 1550 C 2460.563 1556.276, 2460.500 1580.426, 2460.500 2250 C 2460.500 2911.179, 2460.583 2943.803, 2462.276 2950 C 2466.438 2965.238, 2473.577 2974.332, 2486.059 2980.298 C 2498.944 2986.456, 2503.975 2987, 2548.051 2987 C 2583.289 2987, 2588.166 2986.800, 2597.031 2984.994 C 2627.847 2978.714, 2657.123 2961.825, 2676.674 2939.051 C 2695.181 2917.492, 2705.429 2894.864, 2712.247 2860.500 L 2714.429 2849.500 2714.765 2254 C 2715.006 1828.386, 2714.790 1655.362, 2714.009 1647.500 C 2710.779 1614.987, 2700.753 1585.562, 2685.690 1564.384 C 2682.311 1559.635, 2675.037 1551.489, 2669.524 1546.281 C 2649.151 1527.037, 2628.321 1516.139, 2599.782 1509.793 C 2591.542 1507.961, 2586.459 1507.693, 2554.500 1507.408 C 2527.436 1507.167, 2516.728 1507.420, 2511.360 1508.430 M 4119 2908.534 C 4084.106 2913.410, 4053.766 2924.889, 4025 2944.100 C 3949.543 2994.493, 3912.596 3084.452, 3930.580 3174 C 3946.871 3255.121, 4009.048 3321.431, 4089.495 3343.479 C 4123.153 3352.704, 4162.355 3353.620, 4197.323 3346 C 4261.801 3331.949, 4318.458 3287.035, 4348.065 3226.500 C 4363.682 3194.571, 4370.384 3165.292, 4370.384 3129 C 4370.384 3092.694, 4363.744 3063.711, 4348.045 3031.500 C 4336.326 3007.453, 4322.503 2988.526, 4302.359 2968.943 C 4268.011 2935.550, 4224.979 2914.876, 4176.630 2908.538 C 4162.322 2906.662, 4132.407 2906.660, 4119 2908.534" stroke="none" fill="#1c1c1c" fill-rule="evenodd"/></svg>