<svg version="1.2" xmlns="http://www.w3.org/2000/svg" viewBox="0 0 4500 4500" width="4500" height="4500">
	<title>ludo-svg</title>
	<style>
		.s0 { fill: #ffffff } 
	</style>
	<path id="Layer" fill-rule="evenodd" class="s0" d="m3808.4 1038.3c107.8 11.9 209.1 51.8 295.8 116.3 61.5 45.8 108.9 101.5 141.1 165.7 31 61.9 47.9 126.5 56 214.4 1.9 20.3 2 54.6 2 711.9v690.6l-2.4 3.5c-1.4 1.8-4.3 4.3-6.5 5.3-3.8 1.8-5.2 1.8-18.4 0.4-29.9-3.1-62.1-1.3-91.3 5.2-99.6 22.2-180.3 101.3-204.4 200.6-6.3 26-7.3 34.9-7.2 66.7 0.1 26.2 0.4 30.4 2.9 44.8 7.9 43.7 25.1 83.4 51.1 118 4.4 6 8 11.9 8.4 14.1 0.9 4.9-1.1 11.2-4.8 15-3.9 4-39.4 21.2-63.7 31-76.5 30.4-153.9 44.3-237.3 42.5-42.7-1-75-4.7-115.4-13.4-107.7-23.1-212.8-79.4-287.7-154.1-93.2-93.1-137.4-208.2-143.7-374.4-1.4-38-1.4-1327.3 0-1365.3 4.8-126.7 30.9-220.6 83.9-301.6 29.9-45.5 72.4-89.6 119.5-123.9 95.3-69.3 205.8-109.1 321.5-115.9 26.7-1.6 74.2-0.4 100.6 2.6zm-3597.9 17.5c104.1 0 111.6 0 120.8 2 43.9 9 79.1 44.2 88.2 88.1 1.9 9.6 2 28.8 2.2 589 0 318.5 0.5 710.9 0.9 872.1l0.8 293.1 2.3 12.6c10.3 53.9 30.2 94.5 61.9 126.4 23.9 23.9 45.8 36.3 75.2 42.7 6.9 1.5 13.6 1.9 27.7 1.9 20.8-0.1 33.1-2.1 50.5-8.2 18.9-6.7 29.2-12.9 54-32.9 20.8-16.6 35-26.1 53.9-36 36.5-18.9 67-27 105.7-28 31.6-0.8 58.2 3.2 85.8 12.9 13 4.5 36 15.6 47.6 22.9 21.7 13.5 45.6 34.6 61.1 53.8 25.3 31.3 43.5 70.9 50.4 109.2 12 66.4-4.1 135.2-44.1 188.8-10.8 14.6-35 38.9-48.8 49.2-34.9 25.9-73.7 41.6-115.7 46.8-12.5 1.6-52.9 1.7-405.4 1.4l-391.5-0.3-9.9-3c-44.9-13.7-75.9-49.6-82.5-95.4-0.7-5.1-1.1-379.9-1.1-1105.1 0-725.2 0.4-1100 1.1-1105.1 7-49.2 42.1-86.7 90.9-97.3 5.7-1.2 27.6-1.5 118-1.6zm796.1 0c104.3-0.1 111.6 0 120.8 2 23 4.7 40.1 14.2 57.5 31.7 16.5 16.7 25.5 33.2 31.3 57 1.9 7.8 2 44.6 2.6 906.6 0.6 846.6 0.7 898.9 2.5 907.7 5 24.7 14.4 47.1 26.1 62.8 8.5 11.4 24.3 26.6 34.9 33.7 57.1 38 127.7 29.6 175.1-20.9 23.9-25.5 35.6-54.1 39.1-95.9 0.7-8.7 1.1-308.7 1.1-897.4 0-788 0.2-885.4 1.7-893.9 4.6-26.3 19.5-51.3 41-68.7 11-8.9 29.1-18.1 42.6-21.8l9.3-2.5h231.8l9.3 2.6c39.8 10.8 69.9 40.7 81.7 81.1l3.1 10.4 0.3 908.8c0.2 640.1 0 914.6-0.8 928.5-9.4 156.2-70.3 281.2-181.6 372.3-56.2 46-132.6 83.5-211.1 103.9-50.9 13.1-97.8 19.4-153 20.5-98 2-187-16-272.9-55-16.2-7.4-19.4-9.8-21.5-16.8-1.9-6.4-0.2-10.8 9-23 54.9-73.4 70.3-169.8 41.3-257.5-6.7-20.4-20.7-49.2-32.1-66.2-46.5-69.4-116.8-113.3-200.1-124.7-14.3-2-44.8-2.6-58-1.1-25.4 2.7-27.9 2.7-31.9 0.6-2-1.1-4.8-3.8-6.1-6l-2.5-3.9-0.3-882c-0.2-596.4 0.1-885.2 0.8-891.8 3.1-26.8 12.8-47.9 31-66.9 16.2-16.9 34.7-27.2 57.7-32.1 8.6-1.9 17.2-2 120.3-2.1zm1588.5 1c103.9 8.2 200 40.8 285.9 97 99.2 65 164.4 147.9 198.9 253 16.1 49.1 25.2 99.1 29.9 164.5 2.1 29 2.1 1347.9 0 1376.9-6.4 88.2-21.7 154-50.5 217.1-36 78.8-96.6 146.9-178.3 200.4-86.3 56.5-183.8 89.5-287 97-11.5 0.9-91.6 1.1-264.1 0.9l-247.7-0.3-9.9-3c-39.8-12.3-68.3-41.1-79-80.1l-3-10.9v-2219l3-10.9c8.5-30.8 29.4-57 56.5-71 9.9-5 24-9.9 33.4-11.5 8.2-1.3 494.6-1.4 511.9-0.1zm1132 382.8c-16.4 2.3-31.8 7.2-48.3 15.5-43.6 22-67.5 60-73.7 117-1.6 14.9-1.6 1360.4 0 1375.3 4.2 38.7 16.1 67.5 37.5 90.6 17 18.4 46.4 34.1 75.6 40.4 13.4 2.9 38.4 2.7 52.4-0.6 35.1-7.9 65.9-27.3 83.9-52.9 15.4-21.7 24.1-48 27.2-82.2 1.5-16.6 1.5-1349.3 0-1365.9-5.6-60.2-29.7-99.5-75.3-122.4-24.7-12.4-55.3-18.1-79.3-14.8zm-1260.1 9.2c-28.5 5.3-46.7 20.7-53.6 45.4-2 6.9-2 33.3-2 765.6 0 723.1 0 758.7 1.9 765.5 4.5 16.6 12.4 26.6 26 33.1 14.1 6.8 19.6 7.4 67.8 7.4 38.5 0 43.9-0.2 53.6-2.2 33.7-6.9 65.7-25.3 87.1-50.2 20.2-23.6 31.4-48.4 38.9-86l2.4-12 0.3-651.3c0.3-465.4 0-654.7-0.8-663.2-3.5-35.6-14.5-67.8-31-90.9-3.7-5.2-11.6-14.1-17.7-19.8-22.2-21.1-45-33-76.2-39.9-9-2.1-14.6-2.3-49.5-2.7-29.6-0.2-41.4 0.1-47.2 1.2zm1821.1 1531.2c52.9 6.9 100 29.5 137.5 66 22.1 21.4 37.1 42.2 50 68.4 17.1 35.2 24.4 67 24.4 106.6 0 39.7-7.4 71.7-24.4 106.7-32.4 66.2-94.4 115.3-164.9 130.7-38.2 8.3-81.1 7.3-117.9-2.8-87.9-24.1-155.9-96.6-173.8-185.3-19.7-98 20.7-196.4 103.3-251.5 31.4-21 64.6-33.5 102.8-38.9 14.6-2 47.4-2 63 0z"/>
</svg>