<svg version="1.2" xmlns="http://www.w3.org/2000/svg" viewBox="0 0 9000 9000" width="9000" height="9000">
	<title>ludo-svg</title>
	<style>
		.s0 { fill: #201c1c } 
		.s1 { fill: #1c1c1c } 
	</style>
	<path id="Layer" class="s0" d=""/>
	<path id="Layer" fill-rule="evenodd" class="s1" d="m7616.8 2076.6c215.6 23.8 418.1 103.5 591.7 232.7 122.9 91.5 217.8 203 282.1 331.4 62 123.7 95.7 252.9 112 428.7 3.8 40.6 4 109.3 4 1423.9v1381.2l-4.9 6.9c-2.7 3.7-8.6 8.6-13 10.7-7.6 3.6-10.3 3.6-36.7 0.8-59.7-6.3-124.2-2.6-182.5 10.4-199.3 44.3-360.7 202.6-408.9 401.2-12.7 52-14.6 69.7-14.4 133.3 0.1 52.5 0.7 60.9 5.8 89.6 15.8 87.5 50.2 166.9 102.1 236.1 8.9 11.9 16 23.8 16.8 28.1 1.9 9.9-2.1 22.5-9.5 30.1-7.9 8-78.8 42.4-127.5 61.8-152.9 60.9-307.7 88.7-474.5 85-85.5-1.8-150.1-9.3-230.8-26.6-215.5-46.3-425.6-158.9-575.4-308.3-186.5-186.1-274.9-416.4-287.4-748.7-2.9-76.1-2.9-2654.6 0-2730.7 9.5-253.3 61.8-441.2 167.8-603.1 59.7-91.1 144.7-179.3 239-247.9 190.5-138.5 411.6-218.2 643-231.8 53.3-3.1 148.3-0.7 201.2 5.2zm-7195.9 35c208.3-0.1 223.2 0.1 241.7 3.9 87.8 18.2 158.1 88.5 176.3 176.3 3.9 19.1 4 57.6 4.4 1177.9 0.1 637 1 1421.9 1.8 1744.3l1.6 586.2 4.7 25.1c20.5 107.9 60.3 189.2 123.8 252.8 47.7 47.8 91.5 72.7 150.4 85.5 13.7 3 27.2 3.9 55.3 3.8 41.6-0.2 66.3-4.2 101-16.4 37.9-13.4 58.4-25.8 108.1-65.8 41.5-33.3 70-52.3 107.8-72 72.9-37.8 134-54 211.4-56 63.1-1.7 116.4 6.3 171.6 25.7 25.9 9 71.9 31.2 95.2 45.8 43.3 27.1 91.1 69.3 122.1 107.7 50.6 62.6 87.1 141.7 100.9 218.4 23.9 132.8-8.2 270.4-88.2 377.6-21.7 29.2-70 77.8-97.6 98.3-69.8 51.8-147.4 83.2-231.4 93.7-25.1 3.1-105.9 3.4-810.9 2.8l-783-0.6-19.7-6c-89.9-27.5-151.9-99.2-165-190.9-1.5-10.1-2.2-759.7-2.2-2210.1 0-1450.5 0.7-2200.1 2.2-2210.2 14-98.3 84.2-173.5 181.7-194.6 11.4-2.5 55.2-3.1 236-3.2zm1592.3 0c208.5-0.1 223.2 0.1 241.6 4 45.9 9.5 80.1 28.4 114.9 63.5 33.1 33.4 51.1 66.3 62.6 113.9 3.8 15.7 4 89.2 5.2 1813.2 1.2 1693.3 1.5 1797.8 5 1815.4 10.1 49.4 28.8 94.3 52.3 125.7 17 22.8 48.5 53.1 69.8 67.3 114.2 76 255.4 59.1 350.2-41.9 47.7-50.8 71.1-108.1 78.2-191.6 1.4-17.5 2.2-617.5 2.2-1794.9 0-1575.9 0.4-1770.7 3.4-1787.8 9.2-52.7 39-102.7 82-137.4 21.9-17.7 58.2-36.2 85.2-43.5l18.6-5h463.7l18.6 5.1c79.5 21.7 139.7 81.5 163.4 162.2l6.1 20.8 0.7 1817.6c0.4 1280.2-0.1 1829.2-1.7 1857-18.7 312.4-140.6 562.3-363.2 744.5-112.4 92-265.2 167.2-422.1 207.8-101.9 26.3-195.7 38.9-306.2 41.1-195.8 3.9-373.9-32-545.7-110-32.4-14.8-38.7-19.7-42.9-33.7-3.8-12.7-0.4-21.5 17.9-45.9 109.8-146.9 140.7-339.7 82.7-515.1-13.5-40.7-41.5-98.3-64.2-132.4-93-138.8-233.7-226.5-400.3-249.3-28.6-4-89.5-5.2-116-2.3-50.8 5.4-55.7 5.5-63.7 1.2-4.1-2.2-9.6-7.5-12.3-11.9l-4.9-7.8-0.6-1764c-0.5-1192.9 0.1-1770.4 1.6-1783.7 6.1-53.5 25.6-95.7 62-133.7 32.4-33.9 69.3-54.5 115.3-64.3 17.2-3.7 34.5-4 240.6-4.1zm3177.1 2c207.8 16.4 400 81.6 571.8 194.1 198.4 129.9 328.7 295.7 397.7 506 32.1 98.1 50.4 198.2 59.8 329 4.2 58 4.2 2695.7 0 2753.7-12.8 176.5-43.3 308-101 434.2-72 157.7-193.1 293.8-356.5 400.8-172.6 113-367.7 179-574.2 194.1-22.8 1.7-183.2 2.2-528.2 1.8l-495.4-0.7-19.7-6c-79.6-24.5-136.6-82.2-158-160.2l-6-21.9v-4437.9l6-21.9c16.9-61.5 58.7-114 113-141.9 19.8-10.1 48-19.9 66.7-23 16.4-2.7 989.3-2.9 1024-0.2zm2263.9 765.7c-32.9 4.5-63.6 14.4-96.6 31-87.1 43.9-135 120-147.5 234-3.2 29.8-3.2 2720.7 0 2750.6 8.5 77.3 32.4 135 75 181.1 34 36.8 92.9 68.2 151.3 80.9 26.7 5.8 76.7 5.3 104.8-1.2 70.2-15.9 131.7-54.7 167.8-105.8 30.7-43.5 48.1-96.1 54.4-164.4 3-33.3 3-2698.6 0-2731.9-11.1-120.4-59.4-199-150.6-244.8-49.3-24.7-110.7-36.2-158.6-29.5zm-2520.3 18.3c-57 10.7-93.3 41.4-107.2 90.9-3.9 13.7-4 66.5-4 1531.1 0 1446.1 0.1 1517.5 3.8 1531 9.1 33.3 24.8 53.2 52.1 66.3 28.1 13.5 39.1 14.6 135.5 14.6 77.1 0 87.8-0.4 107.2-4.3 67.4-13.8 131.4-50.7 174.2-100.5 40.5-47.2 62.9-96.7 77.8-171.8l4.8-24.1 0.7-1302.5c0.5-930.9 0-1309.4-1.7-1326.5-7-71.2-29-135.5-61.9-181.8-7.4-10.4-23.3-28.2-35.4-39.6-44.5-42.1-90.1-66-152.5-79.8-18-4.1-29.1-4.6-99-5.3-59.2-0.5-82.7 0.1-94.4 2.3zm3642.3 3062.3c105.8 13.9 199.9 59.1 275 132.1 44.1 42.9 74.3 84.3 99.9 136.9 34.4 70.4 48.9 133.8 48.9 213.2 0 79.4-14.7 143.4-48.8 213.3-64.8 132.4-188.7 230.6-329.7 261.4-76.5 16.6-162.3 14.6-235.9-5.6-175.9-48.2-311.9-193.2-347.6-370.6-39.3-195.9 41.5-392.7 206.6-502.9 62.9-42 129.2-67.1 205.6-77.8 29.3-4.1 94.7-4.1 126 0z"/>
</svg>